<svg width="204" height="50" viewBox="0 0 204 50" fill="none" xmlns="http://www.w3.org/2000/svg">
<path d="M198.272 38.8834L184.949 20.2083L180.85 25.0479V38.8834H176.579V0.0527784H180.85V19.6958L197.247 0.0527784H201.973L187.454 17.2476L203.112 38.8834H198.272Z" fill="#477507"/>
<path fill-rule="evenodd" clip-rule="evenodd" d="M140.235 2.88844C136.222 0.972348 130.613 0.0337409 123.103 0.000417504C122.395 -0.00920507 121.7 0.197324 121.112 0.592463C120.63 0.91862 120.235 1.35835 119.962 1.87298C119.689 2.38762 119.547 2.96138 119.548 3.5438V35.3232C119.548 37.4714 121.077 39.0921 123.103 39.0921C130.997 39.0921 138.873 45.3914 143.616 49.8745C143.681 49.9361 143.762 49.9773 143.85 49.993C143.939 50.0086 144.029 49.998 144.111 49.9625C144.194 49.927 144.263 49.8682 144.312 49.7933C144.361 49.7184 144.387 49.6308 144.387 49.5413L144.43 6.53402C144.43 6.28138 144.376 6.03164 144.271 5.80168C144.167 5.57173 144.014 5.36691 143.823 5.20108C142.737 4.27229 141.53 3.49439 140.235 2.88844ZM125.096 34.8011C124.332 34.7276 123.714 34.0956 123.714 33.3286V5.55476C123.714 4.78781 124.341 4.1646 125.107 4.17856C133.548 4.33224 137.861 5.87193 139.54 7.02009C140.04 7.36228 140.235 7.96596 140.235 8.5722V39.9595C140.235 40.5815 139.466 40.9024 138.995 40.4955C133.944 36.1261 127.794 35.0608 125.096 34.8011Z" fill="#477507"/>
<path fill-rule="evenodd" clip-rule="evenodd" d="M151.632 2.88844C155.645 0.972344 161.254 0.0337356 168.764 0.000412206C169.472 -0.00921036 170.167 0.197318 170.755 0.592457C171.237 0.918614 171.632 1.35835 171.905 1.87298C172.178 2.38761 172.32 2.96137 172.319 3.5438V35.3232C172.319 37.4714 170.79 39.0921 168.764 39.0921C160.87 39.0921 152.994 45.3914 148.251 49.8745C148.186 49.9361 148.105 49.9773 148.017 49.993C147.928 50.0086 147.838 49.998 147.756 49.9625C147.673 49.927 147.604 49.8682 147.555 49.7933C147.506 49.7184 147.48 49.6308 147.48 49.5413L147.437 6.53401C147.437 6.28137 147.491 6.03163 147.596 5.80168C147.7 5.57172 147.853 5.36691 148.044 5.20108C149.13 4.27228 150.337 3.49438 151.632 2.88844ZM166.771 34.8011C167.535 34.7276 168.153 34.0956 168.153 33.3286V5.55476C168.153 4.7878 167.526 4.16459 166.76 4.17856C158.319 4.33223 154.007 5.87192 152.327 7.02008C151.827 7.36228 151.632 7.96596 151.632 8.57219V39.9594C151.632 40.5815 152.401 40.9024 152.872 40.4955C157.923 36.1261 164.073 35.0608 166.771 34.8011Z" fill="#477507"/>
<path d="M108.492 17.9877C110.732 18.5571 112.459 19.6579 113.673 21.2901C114.888 22.9222 115.495 25.0668 115.495 27.7239C115.495 31.178 114.452 33.911 112.364 35.9227C110.276 37.8965 107.41 38.8834 103.767 38.8834H89.6463V0.0527784H102.457C105.911 0.0527784 108.625 0.963762 110.599 2.78573C112.573 4.56974 113.56 6.96106 113.56 9.95971C113.56 11.8956 113.123 13.5657 112.25 14.9701C111.377 16.3366 110.124 17.3425 108.492 17.9877ZM93.9165 16.6213H102.969C107.031 16.6213 109.062 14.4008 109.062 9.95971C109.062 7.94796 108.473 6.3917 107.297 5.29093C106.12 4.19016 104.488 3.63977 102.4 3.63977H93.9165V16.6213ZM103.197 35.3534C105.626 35.3534 107.524 34.6701 108.891 33.3036C110.295 31.9372 110.997 30.0772 110.997 27.7239C110.997 25.3705 110.295 23.5296 108.891 22.201C107.524 20.8346 105.626 20.1513 103.197 20.1513H93.9165V35.3534H103.197Z" fill="#477507"/>
<path d="M13.2662 11.3262C15.8093 11.3262 18.0678 11.9335 20.0416 13.1482C22.0534 14.3628 23.6096 16.0519 24.7104 18.2155C25.8491 20.3411 26.4185 22.7704 26.4185 25.5034C26.4185 28.2743 25.8491 30.7415 24.7104 32.9051C23.5717 35.0687 21.9964 36.7578 19.9847 37.9724C17.9729 39.1871 15.6955 39.7944 13.1523 39.7944C11.2544 39.7944 9.50838 39.3769 7.91416 38.5418C6.31994 37.6688 4.97245 36.4731 3.87168 34.9548V38.8834H0V0L3.87168 1.87894e-05V16.2227C4.97245 14.6665 6.31994 13.4708 7.91416 12.6357C9.54634 11.7627 11.3303 11.3262 13.2662 11.3262ZM13.2662 36.2643C15.0502 36.2643 16.6444 35.8088 18.0488 34.8979C19.4533 33.9869 20.554 32.7153 21.3512 31.0831C22.1483 29.4509 22.5468 27.591 22.5468 25.5034C22.5468 23.4536 22.1483 21.6317 21.3512 20.0375C20.554 18.4053 19.4533 17.1337 18.0488 16.2227C16.6444 15.3117 15.0502 14.8562 13.2662 14.8562C11.4442 14.8562 9.81204 15.3117 8.36965 16.2227C6.96522 17.1337 5.86445 18.4053 5.06734 20.0375C4.27023 21.6696 3.87168 23.5106 3.87168 25.5603C3.87168 27.61 4.27023 29.4509 5.06734 31.0831C5.86445 32.7153 6.96522 33.9869 8.36965 34.8979C9.81204 35.8088 11.4442 36.2643 13.2662 36.2643Z" fill="#689924"/>
<path d="M55.2595 12.2372V38.8834H51.3878V34.4424C50.4768 36.1505 49.2622 37.479 47.7439 38.4279C46.2635 39.3389 44.5364 39.7944 42.5626 39.7944C40.7027 39.7944 38.9756 39.4148 37.3814 38.6557C35.8252 37.8965 34.5726 36.7768 33.6236 35.2964C32.7126 33.8161 32.2571 32.07 32.2571 30.0583V12.2372H36.1288V28.3502C36.1288 33.6263 38.4822 36.2643 43.1889 36.2643C45.9219 36.2643 47.9716 35.2964 49.3381 33.3606C50.7046 31.4247 51.3878 28.8246 51.3878 25.5603V12.2372H55.2595Z" fill="#689924"/>
<path d="M80.7732 12.2372H84.4171L70.1174 49.9929H66.2482L70.3538 39.3958L59.422 12.2372H63.4645L72.2897 34.3285L80.7732 12.2372Z" fill="#689924"/>
</svg>
